<mxfile host="app.diagrams.net" modified="2021-12-20T09:20:43.138Z" agent="5.0 (Windows NT 10.0; Win64; x64) AppleWebKit/537.36 (KHTML, like Gecko) Chrome/94.0.4606.61 Safari/537.36" etag="Qa1l8ei0-OBznA5Ty7nX" version="15.9.6" type="github">
  <diagram id="5vlA0WiLaQtnM4CY3SOf" name="Page-1">
    <mxGraphModel dx="2012" dy="1804" grid="1" gridSize="10" guides="1" tooltips="1" connect="1" arrows="1" fold="1" page="1" pageScale="1" pageWidth="827" pageHeight="1169" math="0" shadow="0">
      <root>
        <mxCell id="0" />
        <mxCell id="1" parent="0" />
        <mxCell id="5ICQpxsMSVb3y06Schbl-2" value="" style="rounded=0;whiteSpace=wrap;html=1;" vertex="1" parent="1">
          <mxGeometry x="-70" y="-120" width="879" height="730" as="geometry" />
        </mxCell>
        <mxCell id="5ICQpxsMSVb3y06Schbl-3" value="" style="rounded=1;whiteSpace=wrap;html=1;" vertex="1" parent="1">
          <mxGeometry x="110" y="20" width="280" height="330" as="geometry" />
        </mxCell>
        <mxCell id="5ICQpxsMSVb3y06Schbl-92" value="" style="rounded=1;whiteSpace=wrap;html=1;fontSize=4;dashed=1;strokeWidth=2;" vertex="1" parent="1">
          <mxGeometry x="140" y="54" width="90" height="256" as="geometry" />
        </mxCell>
        <mxCell id="5ICQpxsMSVb3y06Schbl-4" value="" style="rounded=1;whiteSpace=wrap;html=1;" vertex="1" parent="1">
          <mxGeometry x="460" y="73.5" width="180" height="216.5" as="geometry" />
        </mxCell>
        <mxCell id="5ICQpxsMSVb3y06Schbl-45" value="" style="shape=table;startSize=0;container=1;collapsible=0;childLayout=tableLayout;fontSize=8;" vertex="1" parent="1">
          <mxGeometry x="160" y="85" width="40" height="200" as="geometry" />
        </mxCell>
        <mxCell id="5ICQpxsMSVb3y06Schbl-46" value="" style="shape=partialRectangle;collapsible=0;dropTarget=0;pointerEvents=0;fillColor=none;top=0;left=0;bottom=0;right=0;points=[[0,0.5],[1,0.5]];portConstraint=eastwest;fontSize=8;" vertex="1" parent="5ICQpxsMSVb3y06Schbl-45">
          <mxGeometry width="40" height="50" as="geometry" />
        </mxCell>
        <mxCell id="5ICQpxsMSVb3y06Schbl-47" value="卡页1" style="shape=partialRectangle;html=1;whiteSpace=wrap;connectable=0;overflow=hidden;fillColor=none;top=0;left=0;bottom=0;right=0;pointerEvents=1;fontSize=4;" vertex="1" parent="5ICQpxsMSVb3y06Schbl-46">
          <mxGeometry width="40" height="50" as="geometry">
            <mxRectangle width="40" height="50" as="alternateBounds" />
          </mxGeometry>
        </mxCell>
        <mxCell id="5ICQpxsMSVb3y06Schbl-48" value="" style="shape=partialRectangle;collapsible=0;dropTarget=0;pointerEvents=0;fillColor=none;top=0;left=0;bottom=0;right=0;points=[[0,0.5],[1,0.5]];portConstraint=eastwest;fontSize=8;" vertex="1" parent="5ICQpxsMSVb3y06Schbl-45">
          <mxGeometry y="50" width="40" height="50" as="geometry" />
        </mxCell>
        <mxCell id="5ICQpxsMSVb3y06Schbl-49" value="&lt;span style=&quot;font-size: 8px;&quot;&gt;卡页2&lt;/span&gt;" style="shape=partialRectangle;html=1;whiteSpace=wrap;connectable=0;overflow=hidden;fillColor=#f8cecc;top=0;left=0;bottom=0;right=0;pointerEvents=1;fontSize=8;strokeColor=#b85450;" vertex="1" parent="5ICQpxsMSVb3y06Schbl-48">
          <mxGeometry width="40" height="50" as="geometry">
            <mxRectangle width="40" height="50" as="alternateBounds" />
          </mxGeometry>
        </mxCell>
        <mxCell id="5ICQpxsMSVb3y06Schbl-50" value="" style="shape=partialRectangle;collapsible=0;dropTarget=0;pointerEvents=0;fillColor=none;top=0;left=0;bottom=0;right=0;points=[[0,0.5],[1,0.5]];portConstraint=eastwest;fontSize=8;" vertex="1" parent="5ICQpxsMSVb3y06Schbl-45">
          <mxGeometry y="100" width="40" height="50" as="geometry" />
        </mxCell>
        <mxCell id="5ICQpxsMSVb3y06Schbl-51" value="..." style="shape=partialRectangle;html=1;whiteSpace=wrap;connectable=0;overflow=hidden;fillColor=none;top=0;left=0;bottom=0;right=0;pointerEvents=1;fontSize=8;" vertex="1" parent="5ICQpxsMSVb3y06Schbl-50">
          <mxGeometry width="40" height="50" as="geometry">
            <mxRectangle width="40" height="50" as="alternateBounds" />
          </mxGeometry>
        </mxCell>
        <mxCell id="5ICQpxsMSVb3y06Schbl-52" value="" style="shape=partialRectangle;collapsible=0;dropTarget=0;pointerEvents=0;fillColor=none;top=0;left=0;bottom=0;right=0;points=[[0,0.5],[1,0.5]];portConstraint=eastwest;fontSize=8;" vertex="1" parent="5ICQpxsMSVb3y06Schbl-45">
          <mxGeometry y="150" width="40" height="50" as="geometry" />
        </mxCell>
        <mxCell id="5ICQpxsMSVb3y06Schbl-53" value="&lt;span style=&quot;font-size: 8px&quot;&gt;卡页n&lt;/span&gt;" style="shape=partialRectangle;html=1;whiteSpace=wrap;connectable=0;overflow=hidden;fillColor=none;top=0;left=0;bottom=0;right=0;pointerEvents=1;fontSize=8;" vertex="1" parent="5ICQpxsMSVb3y06Schbl-52">
          <mxGeometry width="40" height="50" as="geometry">
            <mxRectangle width="40" height="50" as="alternateBounds" />
          </mxGeometry>
        </mxCell>
        <mxCell id="5ICQpxsMSVb3y06Schbl-54" value="" style="shape=table;startSize=0;container=1;collapsible=0;childLayout=tableLayout;fontSize=4;" vertex="1" parent="1">
          <mxGeometry x="280" y="50" width="80" height="270" as="geometry" />
        </mxCell>
        <mxCell id="5ICQpxsMSVb3y06Schbl-55" value="" style="shape=partialRectangle;collapsible=0;dropTarget=0;pointerEvents=0;fillColor=none;top=0;left=0;bottom=0;right=0;points=[[0,0.5],[1,0.5]];portConstraint=eastwest;fontSize=4;" vertex="1" parent="5ICQpxsMSVb3y06Schbl-54">
          <mxGeometry width="80" height="68" as="geometry" />
        </mxCell>
        <mxCell id="5ICQpxsMSVb3y06Schbl-56" value="内存区域1" style="shape=partialRectangle;html=1;whiteSpace=wrap;connectable=0;overflow=hidden;fillColor=none;top=0;left=0;bottom=0;right=0;pointerEvents=1;fontSize=4;" vertex="1" parent="5ICQpxsMSVb3y06Schbl-55">
          <mxGeometry width="80" height="68" as="geometry">
            <mxRectangle width="80" height="68" as="alternateBounds" />
          </mxGeometry>
        </mxCell>
        <mxCell id="5ICQpxsMSVb3y06Schbl-57" value="" style="shape=partialRectangle;collapsible=0;dropTarget=0;pointerEvents=0;fillColor=none;top=0;left=0;bottom=0;right=0;points=[[0,0.5],[1,0.5]];portConstraint=eastwest;fontSize=4;" vertex="1" parent="5ICQpxsMSVb3y06Schbl-54">
          <mxGeometry y="68" width="80" height="67" as="geometry" />
        </mxCell>
        <mxCell id="5ICQpxsMSVb3y06Schbl-58" value="内存区域2" style="shape=partialRectangle;html=1;whiteSpace=wrap;connectable=0;overflow=hidden;fillColor=none;top=0;left=0;bottom=0;right=0;pointerEvents=1;fontSize=4;" vertex="1" parent="5ICQpxsMSVb3y06Schbl-57">
          <mxGeometry width="80" height="67" as="geometry">
            <mxRectangle width="80" height="67" as="alternateBounds" />
          </mxGeometry>
        </mxCell>
        <mxCell id="5ICQpxsMSVb3y06Schbl-59" value="" style="shape=partialRectangle;collapsible=0;dropTarget=0;pointerEvents=0;fillColor=none;top=0;left=0;bottom=0;right=0;points=[[0,0.5],[1,0.5]];portConstraint=eastwest;fontSize=4;" vertex="1" parent="5ICQpxsMSVb3y06Schbl-54">
          <mxGeometry y="135" width="80" height="68" as="geometry" />
        </mxCell>
        <mxCell id="5ICQpxsMSVb3y06Schbl-60" value="..." style="shape=partialRectangle;html=1;whiteSpace=wrap;connectable=0;overflow=hidden;fillColor=none;top=0;left=0;bottom=0;right=0;pointerEvents=1;fontSize=4;" vertex="1" parent="5ICQpxsMSVb3y06Schbl-59">
          <mxGeometry width="80" height="68" as="geometry">
            <mxRectangle width="80" height="68" as="alternateBounds" />
          </mxGeometry>
        </mxCell>
        <mxCell id="5ICQpxsMSVb3y06Schbl-61" value="" style="shape=partialRectangle;collapsible=0;dropTarget=0;pointerEvents=0;fillColor=none;top=0;left=0;bottom=0;right=0;points=[[0,0.5],[1,0.5]];portConstraint=eastwest;fontSize=4;" vertex="1" parent="5ICQpxsMSVb3y06Schbl-54">
          <mxGeometry y="203" width="80" height="67" as="geometry" />
        </mxCell>
        <mxCell id="5ICQpxsMSVb3y06Schbl-62" value="内存区域n" style="shape=partialRectangle;html=1;whiteSpace=wrap;connectable=0;overflow=hidden;fillColor=none;top=0;left=0;bottom=0;right=0;pointerEvents=1;fontSize=4;" vertex="1" parent="5ICQpxsMSVb3y06Schbl-61">
          <mxGeometry width="80" height="67" as="geometry">
            <mxRectangle width="80" height="67" as="alternateBounds" />
          </mxGeometry>
        </mxCell>
        <mxCell id="5ICQpxsMSVb3y06Schbl-78" style="edgeStyle=orthogonalEdgeStyle;curved=1;rounded=0;orthogonalLoop=1;jettySize=auto;html=1;exitX=1;exitY=0.5;exitDx=0;exitDy=0;entryX=0;entryY=0.5;entryDx=0;entryDy=0;fontSize=4;" edge="1" parent="1" source="5ICQpxsMSVb3y06Schbl-63" target="5ICQpxsMSVb3y06Schbl-77">
          <mxGeometry relative="1" as="geometry" />
        </mxCell>
        <mxCell id="5ICQpxsMSVb3y06Schbl-63" value="" style="ellipse;whiteSpace=wrap;html=1;fontSize=4;fillColor=#d5e8d4;strokeColor=#82b366;" vertex="1" parent="1">
          <mxGeometry x="330" y="121" width="20" height="15" as="geometry" />
        </mxCell>
        <mxCell id="5ICQpxsMSVb3y06Schbl-81" style="edgeStyle=orthogonalEdgeStyle;curved=1;rounded=0;orthogonalLoop=1;jettySize=auto;html=1;exitX=1;exitY=0.5;exitDx=0;exitDy=0;entryX=0;entryY=0.5;entryDx=0;entryDy=0;fontSize=4;" edge="1" parent="1" source="5ICQpxsMSVb3y06Schbl-65" target="5ICQpxsMSVb3y06Schbl-63">
          <mxGeometry relative="1" as="geometry" />
        </mxCell>
        <mxCell id="5ICQpxsMSVb3y06Schbl-65" value="" style="ellipse;whiteSpace=wrap;html=1;fontSize=4;fillColor=#d5e8d4;strokeColor=#82b366;" vertex="1" parent="1">
          <mxGeometry x="330" y="53" width="20" height="15" as="geometry" />
        </mxCell>
        <mxCell id="5ICQpxsMSVb3y06Schbl-80" style="edgeStyle=orthogonalEdgeStyle;curved=1;rounded=0;orthogonalLoop=1;jettySize=auto;html=1;exitX=1;exitY=0.5;exitDx=0;exitDy=0;fontSize=4;" edge="1" parent="1" source="5ICQpxsMSVb3y06Schbl-68" target="5ICQpxsMSVb3y06Schbl-79">
          <mxGeometry relative="1" as="geometry" />
        </mxCell>
        <mxCell id="5ICQpxsMSVb3y06Schbl-68" value="" style="ellipse;whiteSpace=wrap;html=1;fontSize=4;fillColor=#d5e8d4;strokeColor=#82b366;" vertex="1" parent="1">
          <mxGeometry x="330" y="162.5" width="20" height="15" as="geometry" />
        </mxCell>
        <mxCell id="5ICQpxsMSVb3y06Schbl-74" style="edgeStyle=orthogonalEdgeStyle;curved=1;rounded=0;orthogonalLoop=1;jettySize=auto;html=1;exitX=0;exitY=0.5;exitDx=0;exitDy=0;entryX=1;entryY=0.5;entryDx=0;entryDy=0;fontSize=4;" edge="1" parent="1" source="5ICQpxsMSVb3y06Schbl-55" target="5ICQpxsMSVb3y06Schbl-46">
          <mxGeometry relative="1" as="geometry" />
        </mxCell>
        <mxCell id="5ICQpxsMSVb3y06Schbl-75" style="edgeStyle=orthogonalEdgeStyle;curved=1;rounded=0;orthogonalLoop=1;jettySize=auto;html=1;exitX=0;exitY=0.5;exitDx=0;exitDy=0;entryX=1;entryY=0.5;entryDx=0;entryDy=0;fontSize=4;" edge="1" parent="1" source="5ICQpxsMSVb3y06Schbl-57" target="5ICQpxsMSVb3y06Schbl-48">
          <mxGeometry relative="1" as="geometry" />
        </mxCell>
        <mxCell id="5ICQpxsMSVb3y06Schbl-77" value="" style="ellipse;whiteSpace=wrap;html=1;fontSize=4;fillColor=#dae8fc;strokeColor=#6c8ebf;" vertex="1" parent="1">
          <mxGeometry x="500" y="118.5" width="20" height="15" as="geometry" />
        </mxCell>
        <mxCell id="5ICQpxsMSVb3y06Schbl-79" value="" style="ellipse;whiteSpace=wrap;html=1;fontSize=4;fillColor=#dae8fc;strokeColor=#6c8ebf;" vertex="1" parent="1">
          <mxGeometry x="510" y="196" width="20" height="15" as="geometry" />
        </mxCell>
        <mxCell id="5ICQpxsMSVb3y06Schbl-82" value="老年代" style="text;html=1;align=center;verticalAlign=middle;resizable=0;points=[];autosize=1;strokeColor=none;fillColor=none;fontSize=4;" vertex="1" parent="1">
          <mxGeometry x="230" y="30" width="50" height="10" as="geometry" />
        </mxCell>
        <mxCell id="5ICQpxsMSVb3y06Schbl-83" value="新生代" style="text;html=1;align=center;verticalAlign=middle;resizable=0;points=[];autosize=1;strokeColor=none;fillColor=none;fontSize=4;" vertex="1" parent="1">
          <mxGeometry x="525" y="85" width="50" height="10" as="geometry" />
        </mxCell>
        <mxCell id="5ICQpxsMSVb3y06Schbl-87" value="0" style="rounded=1;whiteSpace=wrap;html=1;fontSize=4;" vertex="1" parent="1">
          <mxGeometry x="160" y="85" width="20" height="15" as="geometry" />
        </mxCell>
        <mxCell id="5ICQpxsMSVb3y06Schbl-88" value="0" style="rounded=1;whiteSpace=wrap;html=1;fontSize=4;" vertex="1" parent="1">
          <mxGeometry x="160" y="186" width="20" height="15" as="geometry" />
        </mxCell>
        <mxCell id="5ICQpxsMSVb3y06Schbl-89" value="0" style="rounded=1;whiteSpace=wrap;html=1;fontSize=4;" vertex="1" parent="1">
          <mxGeometry x="160" y="235" width="20" height="15" as="geometry" />
        </mxCell>
        <mxCell id="5ICQpxsMSVb3y06Schbl-90" value="1" style="rounded=1;whiteSpace=wrap;html=1;fontSize=4;fillColor=#f8cecc;strokeColor=#b85450;" vertex="1" parent="1">
          <mxGeometry x="160" y="136" width="20" height="15" as="geometry" />
        </mxCell>
        <mxCell id="5ICQpxsMSVb3y06Schbl-93" value="卡表" style="text;html=1;align=center;verticalAlign=middle;resizable=0;points=[];autosize=1;strokeColor=none;fillColor=none;fontSize=4;" vertex="1" parent="1">
          <mxGeometry x="160" y="68" width="40" height="10" as="geometry" />
        </mxCell>
        <mxCell id="5ICQpxsMSVb3y06Schbl-94" style="edgeStyle=orthogonalEdgeStyle;curved=1;rounded=0;orthogonalLoop=1;jettySize=auto;html=1;exitX=0;exitY=0.5;exitDx=0;exitDy=0;fontSize=4;" edge="1" parent="1" source="5ICQpxsMSVb3y06Schbl-61" target="5ICQpxsMSVb3y06Schbl-52">
          <mxGeometry relative="1" as="geometry" />
        </mxCell>
        <mxCell id="5ICQpxsMSVb3y06Schbl-95" value="" style="ellipse;whiteSpace=wrap;html=1;fontSize=4;fillColor=#dae8fc;strokeColor=#6c8ebf;" vertex="1" parent="1">
          <mxGeometry x="575" y="133.5" width="20" height="15" as="geometry" />
        </mxCell>
        <mxCell id="5ICQpxsMSVb3y06Schbl-97" style="edgeStyle=orthogonalEdgeStyle;curved=1;rounded=0;orthogonalLoop=1;jettySize=auto;html=1;fontSize=4;entryX=0.5;entryY=1;entryDx=0;entryDy=0;" edge="1" parent="1" source="5ICQpxsMSVb3y06Schbl-96" target="5ICQpxsMSVb3y06Schbl-95">
          <mxGeometry relative="1" as="geometry" />
        </mxCell>
        <mxCell id="5ICQpxsMSVb3y06Schbl-96" value="" style="ellipse;whiteSpace=wrap;html=1;fontSize=4;fillColor=#dae8fc;strokeColor=#6c8ebf;" vertex="1" parent="1">
          <mxGeometry x="560" y="235" width="20" height="15" as="geometry" />
        </mxCell>
      </root>
    </mxGraphModel>
  </diagram>
</mxfile>
